<?xml version="1.0" encoding="UTF-8" standalone="no"?>
<svg
   width="391.83334"
   zoomAndPan="magnify"
   viewBox="0 0 293.87501 47.01953"
   height="62.692707"
   preserveAspectRatio="xMidYMid"
   version="1.0"
   id="svg278"
   xmlns="http://www.w3.org/2000/svg"
   xmlns:svg="http://www.w3.org/2000/svg">
  <defs
     id="defs146">
    <g
       id="g132" />
    <clipPath
       id="24952cbb7c">
      <path
         d="M 3.0625,14 H 56 V 47.019531 H 3.0625 Z m 0,0"
         clip-rule="nonzero"
         id="path134" />
    </clipPath>
    <clipPath
       id="0db31d7dfa">
      <path
         d="M 41,0 H 74.269531 V 40 H 41 Z m 0,0"
         clip-rule="nonzero"
         id="path137" />
    </clipPath>
    <clipPath
       id="762911aea0">
      <path
         d="M 67,0 H 178 V 47.019531 H 67 Z m 0,0"
         clip-rule="nonzero"
         id="path140" />
    </clipPath>
    <clipPath
       id="4a3a06fe6f">
      <path
         d="M 150,0 H 296.9375 V 47.019531 H 150 Z m 0,0"
         clip-rule="nonzero"
         id="path143" />
    </clipPath>
  </defs>
  <g
     clip-path="url(#24952cbb7c)"
     id="g150"
     transform="translate(-3.0625)">
    <path
       fill="#c22712"
       d="m 51.242188,37.414062 c -0.1875,-1.234374 0.160156,-2.492187 0.953124,-3.449218 C 43.476562,32.707031 35.59375,28.019531 30.277344,20.957031 L 3.015625,14.195312 c 3.007813,3.660157 7.765625,5.644532 14.273437,5.945313 -2.542968,0.328125 -7.136718,0.1875 -13.808593,-0.441406 3.171875,3.308593 7.675781,3.984375 13.480469,2.074219 l -11.03125,4.871093 c 3.710937,1.515625 7.671874,0.351563 11.871093,-3.425781 l -6.554687,6.945312 c 2.425781,-0.253906 4.6875,-1.605468 6.789062,-4.007812 l -2.777344,6.039062 c 1.121094,0.394532 2.191407,0.207032 3.265626,-0.609374 4.5,5.691406 11.214843,9.1875 18.445312,9.582031 l -11.355469,5.851562 8.742188,-0.164062 5.738281,-3.308594 c 0.02344,1.164063 -0.675781,2.261719 -1.75,2.726563 1.84375,-0.464844 3.59375,-1.234376 5.15625,-2.332032 3.425781,0.769532 6.949219,-0.394531 9.210938,-2.933594 0.160156,-0.164062 1.46875,-0.1875 2.539062,-1.492187 -2.46875,1.28125 -3.824219,-0.863281 -4.007812,-2.101563 z m 0,0"
       fill-opacity="1"
       fill-rule="evenodd"
       id="path148" />
  </g>
  <g
     clip-path="url(#0db31d7dfa)"
     id="g154"
     transform="translate(-3.0625)">
    <path
       fill="#23923c"
       d="m 54.480469,34.246094 c -0.859375,0.582031 -1.398438,1.515625 -1.515625,2.5625 -0.09375,1.027344 0.257812,2.027344 0.980468,2.796875 -0.28125,-0.324219 0.351563,-2.632813 2.589844,-1.511719 1.304688,0.300781 2.679688,-0.164062 3.496094,-1.238281 0.304688,-0.324219 0.910156,-0.277344 1.84375,0.07031 0.117188,-0.628906 -0.09375,-1.28125 -0.535156,-1.769531 C 60.894531,34.6875 60.242188,34.433594 59.589844,34.5 58.984375,33.710938 58.074219,33.21875 57.09375,33.171875 56.113281,33.125 55.160156,33.5 54.480469,34.246094 Z M 41.445312,28.859375 C 43.195312,21.820312 47.859375,15.875 54.296875,12.542969 53.6875,11.351562 53.6875,10.234375 54.320312,9.207031 l 5.386719,3.871094 C 57.746094,10.582031 56.859375,8.089844 57.023438,5.664062 l 5.597656,7.742188 C 59.683594,8.601562 59.285156,4.5 61.476562,1.117188 L 64.207031,12.84375 C 63.4375,6.785156 64.953125,2.496094 68.777344,0 66.910156,6.433594 65.910156,10.933594 65.769531,13.496094 67.238281,7.15625 70.082031,2.84375 74.257812,0.582031 L 62.550781,26.085938 c -3.964843,1.957031 -7.460937,4.640624 -10.355469,7.902343 -3.871093,-0.488281 -7.460937,-2.191406 -10.75,-5.128906 z m 0,0"
       fill-opacity="1"
       fill-rule="evenodd"
       id="path152" />
  </g>
  <path
     fill="#d9d9d9"
     d="m 54.101562,34.523438 c 0.628907,0.140624 1.117188,0.398437 1.117188,0.609374 0.02344,0.160157 -0.488281,0.207032 -1.09375,0.07031 -0.628906,-0.140625 -1.121094,-0.421875 -1.121094,-0.609375 0,-0.183594 0.492188,-0.207031 1.097656,-0.07031 z m 0,0"
     fill-opacity="1"
     fill-rule="evenodd"
     id="path156" />
  <g
     clip-path="url(#762911aea0)"
     id="g160"
     transform="translate(-3.0625)">
    <path
       stroke-linecap="butt"
       transform="matrix(1.893239,0,0,1.893239,80.25159,-1.111419)"
       fill="none"
       stroke-linejoin="miter"
       d="M 1.039045,18.102083 V 6.234196 c 0,-0.233149 0.096973,-0.437412 0.295046,-0.608662 C 1.534228,5.448093 1.798325,5.359373 2.122258,5.359373 h 3.862427 c 1.330805,0 2.397511,0.346628 3.198057,1.035758 0.80261,0.689129 1.202883,1.774405 1.202883,3.255828 v 0.092847 c 0,1.481422 -0.420906,2.574952 -1.260654,3.278524 -0.839748,0.701509 -1.94772,1.052264 -3.325979,1.052264 H 3.948245 v 4.027489 c 0,0.288857 -0.142365,0.511689 -0.427095,0.666434 -0.284731,0.154744 -0.627232,0.231085 -1.025442,0.231085 -0.39821,0 -0.740711,-0.07634 -1.029568,-0.231085 C 1.18141,18.613772 1.039045,18.39094 1.039045,18.102083 Z m 2.9092,-6.268192 h 1.850747 c 1.118288,0 1.675369,-0.621042 1.675369,-1.863126 V 9.760312 c 0,-1.242084 -0.557081,-1.863126 -1.675369,-1.863126 H 3.948245 Z m 7.204913,3.398193 v -1.308108 c 0,-1.056391 0.414716,-1.972479 1.248274,-2.750329 0.831495,-0.77785 1.825988,-1.165744 2.983478,-1.165744 1.145111,0 2.139603,0.385831 2.983478,1.155428 0.848001,0.77166 1.270969,1.691875 1.270969,2.760645 v 1.308108 c 0,1.046075 -0.427095,1.96629 -1.279222,2.760646 -0.852128,0.796419 -1.842494,1.194629 -2.975225,1.194629 -1.130668,0 -2.118971,-0.39821 -2.966972,-1.194629 -0.843874,-0.794356 -1.26478,-1.714571 -1.26478,-2.760646 z m 2.886505,0 c 0,0.371388 0.132048,0.703573 0.39202,0.99862 0.264097,0.29092 0.58184,0.437411 0.953227,0.437411 0.37345,0 0.693256,-0.146491 0.96148,-0.437411 0.266161,-0.295047 0.400273,-0.627232 0.400273,-0.99862 v -1.308108 c 0,-0.361071 -0.136175,-0.68294 -0.410589,-0.969733 -0.272351,-0.284731 -0.590093,-0.427096 -0.951164,-0.427096 -0.359008,0 -0.672624,0.142365 -0.942911,0.427096 -0.268224,0.286793 -0.402336,0.608662 -0.402336,0.969733 z m 6.49515,2.236577 c 0,-0.259971 0.09285,-0.536448 0.278541,-0.829431 0.187757,-0.29092 0.412652,-0.437412 0.672624,-0.437412 0.148554,0 0.332185,0.07015 0.546764,0.206326 0.218706,0.136176 0.49312,0.276477 0.825305,0.418842 0.330122,0.142366 0.713889,0.21458 1.147174,0.21458 0.77166,0 1.157491,-0.206326 1.157491,-0.614852 0,-0.224896 -0.150619,-0.408526 -0.449792,-0.550892 -0.299173,-0.144428 -0.662307,-0.26616 -1.089402,-0.365197 -0.429159,-0.1011 -0.858318,-0.231085 -1.28954,-0.39202 -0.429158,-0.160934 -0.792292,-0.429159 -1.093529,-0.802609 -0.29711,-0.373451 -0.445664,-0.852128 -0.445664,-1.433968 0,-0.798482 0.27854,-1.477296 0.837684,-2.03644 0.561208,-0.559144 1.452537,-0.837685 2.669862,-0.837685 0.835621,0 1.572206,0.125859 2.213881,0.381704 0.641675,0.255845 0.96148,0.57565 0.96148,0.96148 0,0.249655 -0.1011,0.538512 -0.301236,0.870697 -0.198073,0.328059 -0.445665,0.491057 -0.746901,0.491057 -0.123796,0 -0.410589,-0.09285 -0.860381,-0.278541 -0.447728,-0.187757 -0.856254,-0.280603 -1.225578,-0.280603 -0.350754,0 -0.614852,0.05777 -0.798482,0.17744 -0.179504,0.117606 -0.268224,0.257908 -0.268224,0.418843 0,0.185693 0.152681,0.334248 0.455981,0.445664 0.307426,0.11348 0.674686,0.222833 1.101782,0.328059 0.429158,0.10729 0.856254,0.243465 1.285412,0.410589 0.431222,0.167125 0.798483,0.451855 1.101783,0.856254 0.307426,0.4044 0.460107,0.911962 0.460107,1.520625 0,0.897519 -0.313616,1.599028 -0.942911,2.110718 -0.629295,0.509625 -1.514435,0.76547 -2.659545,0.76547 -0.969734,0 -1.803292,-0.171251 -2.502738,-0.511689 -0.695319,-0.342502 -1.041948,-0.744838 -1.041948,-1.207009 z m 0.856254,-9.944926 c 0,-0.37345 0.156808,-0.645801 0.468361,-0.819115 l 1.94153,-1.048137 c 0.123796,-0.059835 0.229022,-0.090784 0.313616,-0.090784 0.08872,0 0.19601,0.030949 0.319806,0.090784 l 1.939467,1.048137 c 0.311552,0.173314 0.466297,0.445665 0.466297,0.819115 0,0.224896 -0.05777,0.425032 -0.169187,0.598346 -0.109353,0.171251 -0.245529,0.257908 -0.41059,0.257908 -0.05983,0 -0.127922,-0.016506 -0.204263,-0.053645 l -1.94153,-1.04401 -1.939467,1.04401 c -0.07428,0.037139 -0.142365,0.053645 -0.206326,0.053645 -0.160934,0 -0.29711,-0.086657 -0.408526,-0.257908 -0.113479,-0.173314 -0.169188,-0.37345 -0.169188,-0.598346 z m 7.557732,8.323202 V 7.131715 c 0,-0.247591 0.148554,-0.455981 0.445664,-0.623105 0.301237,-0.171251 0.631359,-0.255845 0.99243,-0.255845 0.383766,0 0.720078,0.084594 1.013062,0.255845 0.292983,0.167124 0.441538,0.375514 0.441538,0.623105 v 2.985541 h 2.108654 c 0.224896,0 0.400273,0.103164 0.524069,0.30949 0.123796,0.2022 0.185694,0.443601 0.185694,0.720078 0,0.284731 -0.0619,0.528196 -0.185694,0.728332 -0.123796,0.198073 -0.299173,0.295047 -0.524069,0.295047 h -2.108654 v 3.676734 c 0,0.274414 0.05571,0.464234 0.167124,0.56946 0.113479,0.10729 0.311553,0.160935 0.598346,0.160935 h 0.800546 c 0.39821,0 0.701509,0.119669 0.911962,0.363134 0.212516,0.239338 0.317743,0.522005 0.317743,0.848001 0,0.334248 -0.105227,0.618979 -0.317743,0.856254 -0.210453,0.237275 -0.513752,0.354881 -0.911962,0.354881 h -0.800546 c -2.438776,0 -3.658164,-1.050201 -3.658164,-3.152665 z m 6.325963,0.856254 c 0,-1.031632 0.375514,-1.759963 1.124478,-2.180869 0.753091,-0.422969 1.832177,-0.633422 3.239322,-0.633422 h 0.674687 v -0.187756 c 0,-0.373451 -0.113479,-0.697383 -0.338375,-0.969734 -0.224896,-0.272351 -0.579777,-0.410589 -1.064643,-0.410589 -0.596283,0 -1.08734,0.103163 -1.471107,0.309489 -0.38583,0.204263 -0.623105,0.305363 -0.711825,0.305363 -0.29711,0 -0.534385,-0.144428 -0.709763,-0.437412 -0.173314,-0.292983 -0.259971,-0.627231 -0.259971,-1.000682 0,-0.410589 0.344565,-0.761344 1.033695,-1.052264 0.693256,-0.292983 1.411271,-0.437412 2.160236,-0.437412 1.429841,0 2.496548,0.346629 3.198057,1.041948 0.703572,0.69532 1.05639,1.56808 1.05639,2.616217 v 4.436015 c 0,0.249655 -0.136175,0.462171 -0.406462,0.637548 -0.266161,0.173314 -0.604536,0.259971 -1.015126,0.259971 -0.361071,0 -0.666433,-0.08666 -0.916088,-0.259971 -0.245528,-0.175377 -0.369324,-0.387893 -0.369324,-0.637548 v -0.410589 c -0.858317,0.996555 -1.805355,1.495865 -2.836986,1.495865 -0.68294,0 -1.252401,-0.212516 -1.708382,-0.633422 -0.453918,-0.425032 -0.678813,-1.041947 -0.678813,-1.850746 z m 2.911263,-0.408526 c 0,0.522005 0.241402,0.781976 0.724206,0.781976 0.311552,0 0.623105,-0.171251 0.932594,-0.517879 0.313616,-0.350754 0.470424,-0.748964 0.470424,-1.198755 v -0.07221 h -0.0784 c -0.408526,0 -0.748964,0.01857 -1.015125,0.05364 -0.268224,0.03714 -0.507563,0.134112 -0.720079,0.29092 -0.210452,0.156808 -0.313616,0.375514 -0.313616,0.662308 z m 0,0"
       stroke="#d9d9d9"
       stroke-width="1.4"
       stroke-opacity="1"
       stroke-miterlimit="4"
       id="path158" />
  </g>
  <g
     clip-path="url(#4a3a06fe6f)"
     id="g164"
     transform="translate(-3.0625)">
    <path
       stroke-linecap="butt"
       transform="matrix(1.893239,0,0,1.893239,80.25159,-1.111419)"
       fill="none"
       stroke-linejoin="miter"
       d="M 44.959717,18.102083 V 6.234196 c 0,-0.28473 0.142365,-0.501373 0.429158,-0.649928 0.286794,-0.148555 0.631359,-0.224895 1.029568,-0.224895 0.396147,0 0.738648,0.07634 1.023379,0.224895 0.286793,0.148555 0.429158,0.365198 0.429158,0.649928 v 10.227593 h 4.254448 c 0.262034,0 0.466297,0.125859 0.614852,0.373451 0.148555,0.249654 0.224896,0.548827 0.224896,0.897519 0,0.346628 -0.07634,0.643738 -0.224896,0.893393 -0.148555,0.249654 -0.352818,0.37345 -0.614852,0.37345 h -5.894742 c -0.348691,0 -0.647864,-0.07634 -0.897519,-0.231085 -0.249655,-0.154745 -0.37345,-0.377577 -0.37345,-0.666434 z m 8.678082,-2.869999 v -1.308108 c 0,-1.056391 0.416779,-1.972479 1.248274,-2.750329 0.831495,-0.77785 1.825988,-1.165744 2.983478,-1.165744 1.145111,0 2.139603,0.385831 2.983478,1.155428 0.848001,0.77166 1.27097,1.691875 1.27097,2.760645 v 1.308108 c 0,1.046075 -0.425033,1.96629 -1.279223,2.760646 -0.850064,0.796419 -1.842494,1.194629 -2.975225,1.194629 -1.128605,0 -2.118971,-0.39821 -2.964908,-1.194629 -0.843875,-0.794356 -1.266844,-1.714571 -1.266844,-2.760646 z m 2.888568,0 c 0,0.371388 0.129986,0.703573 0.39202,0.99862 0.264098,0.29092 0.58184,0.437411 0.951164,0.437411 0.373451,0 0.69532,-0.146491 0.96148,-0.437411 0.268225,-0.295047 0.400273,-0.627232 0.400273,-0.99862 v -1.308108 c 0,-0.361071 -0.136175,-0.68294 -0.408526,-0.969733 -0.274414,-0.284731 -0.592156,-0.427096 -0.953227,-0.427096 -0.359008,0 -0.672624,0.142365 -0.942911,0.427096 -0.266161,0.286793 -0.400273,0.608662 -0.400273,0.969733 z m 6.3239,5.112765 c 0,-0.821178 0.418842,-1.466979 1.254464,-1.94153 -0.449792,-0.262034 -0.674687,-0.647864 -0.674687,-1.15749 0,-0.546765 0.317742,-1.050201 0.951164,-1.512372 -0.806736,-0.594219 -1.211135,-1.384449 -1.211135,-2.368625 v -0.278541 c 0,-0.907835 0.350754,-1.646483 1.052264,-2.218007 0.705636,-0.573587 1.627914,-0.860381 2.770961,-0.860381 0.786103,0 1.489676,0.148555 2.108655,0.445665 0.212516,-0.509626 0.39821,-0.854191 0.559144,-1.033694 0.160934,-0.183631 0.330122,-0.274414 0.507563,-0.274414 0.321869,0 0.583903,0.096973 0.786103,0.292983 0.208389,0.18982 0.311552,0.37964 0.311552,0.56946 0,0.19601 -0.09904,0.383767 -0.297109,0.559145 l -0.373451,0.297109 c -0.185694,0.148555 -0.328059,0.272351 -0.427095,0.373451 0.470424,0.509626 0.705635,1.126541 0.705635,1.848683 v 0.278541 c 0,0.895456 -0.365197,1.640294 -1.093529,2.23245 -0.726268,0.58803 -1.654736,0.883076 -2.787468,0.883076 -0.410589,0 -0.781976,-0.03714 -1.116225,-0.113479 -0.05158,0.08872 -0.0784,0.169187 -0.0784,0.245528 0,0.173314 0.189821,0.3033 0.569461,0.39202 0.37964,0.08459 0.839748,0.165061 1.380323,0.241402 0.544701,0.07634 1.085276,0.185693 1.625851,0.328059 0.540574,0.142365 1.000682,0.418842 1.380322,0.829431 0.379641,0.410589 0.569461,0.944974 0.569461,1.603155 0,1.021315 -0.41059,1.782659 -1.233831,2.288159 -0.819116,0.503436 -1.815671,0.755154 -2.983478,0.755154 -1.16987,0 -2.172616,-0.243465 -3.008237,-0.728332 -0.831495,-0.48693 -1.248274,-1.145111 -1.248274,-1.976606 z M 64.290424,7.523735 c 0,-0.37345 0.154745,-0.645801 0.464234,-0.819115 l 1.941531,-1.048137 c 0.123795,-0.059835 0.229022,-0.090784 0.313616,-0.090784 0.08872,0 0.196009,0.030949 0.319805,0.090784 l 1.94153,1.048137 c 0.311553,0.173314 0.468361,0.445665 0.468361,0.819115 0,0.224896 -0.05571,0.425032 -0.169188,0.598346 -0.111416,0.171251 -0.247591,0.257908 -0.408526,0.257908 -0.06396,0 -0.132048,-0.016506 -0.206326,-0.053645 l -1.939467,-1.04401 -1.94153,1.04401 c -0.07634,0.037139 -0.144428,0.053645 -0.204263,0.053645 -0.165061,0 -0.303299,-0.086657 -0.414716,-0.257908 -0.109353,-0.173314 -0.165061,-0.37345 -0.165061,-0.598346 z m 1.285413,12.519878 c 0,0.361071 0.146492,0.645801 0.437412,0.856254 0.295046,0.212516 0.639611,0.317742 1.037821,0.317742 0.398209,0 0.742774,-0.105226 1.033694,-0.317742 0.292984,-0.210453 0.437412,-0.48074 0.437412,-0.814989 0,-0.212516 -0.05571,-0.387893 -0.167124,-0.524069 -0.109353,-0.136175 -0.280604,-0.245528 -0.511689,-0.328058 -0.229023,-0.0784 -0.453918,-0.142365 -0.672624,-0.187757 -0.216643,-0.04126 -0.49931,-0.08047 -0.848001,-0.117606 -0.497246,0.259971 -0.746901,0.633421 -0.746901,1.116225 z m 0.39202,-6.697351 c 0,0.422969 0.09285,0.769597 0.276477,1.044011 0.18982,0.272351 0.451855,0.408526 0.788166,0.408526 0.321869,0 0.575651,-0.132048 0.761344,-0.400273 0.187757,-0.266161 0.282667,-0.610725 0.282667,-1.033694 v -0.278541 c 0,-0.400273 -0.09491,-0.734521 -0.282667,-1.002745 -0.185693,-0.266161 -0.443601,-0.400273 -0.77785,-0.400273 -0.325995,0 -0.58184,0.134112 -0.77166,0.400273 -0.18363,0.268224 -0.276477,0.602472 -0.276477,1.002745 z M 72.739485,7.998286 C 72.442375,7.730062 72.29382,7.418509 72.29382,7.059501 c 0,-0.361071 0.148555,-0.672623 0.445665,-0.934658 0.29711,-0.259971 0.658181,-0.389956 1.083213,-0.389956 0.410589,0 0.76547,0.129985 1.06258,0.389956 0.29711,0.262035 0.445665,0.573587 0.445665,0.934658 0,0.359008 -0.148555,0.670561 -0.445665,0.938785 -0.29711,0.266161 -0.651991,0.400273 -1.06258,0.400273 -0.425032,0 -0.786103,-0.134112 -1.083213,-0.400273 z m -0.354881,10.103797 v -7.105877 c 0,-0.262034 0.132049,-0.472487 0.400273,-0.633421 0.268224,-0.165061 0.612789,-0.245529 1.037821,-0.245529 0.410589,0 0.755154,0.08047 1.035758,0.245529 0.27854,0.160934 0.418842,0.371387 0.418842,0.633421 v 7.105877 c 0,0.224895 -0.142365,0.431222 -0.429159,0.621042 -0.28473,0.18363 -0.627232,0.276477 -1.025441,0.276477 -0.408526,0 -0.753091,-0.08872 -1.029568,-0.268224 -0.272351,-0.181567 -0.408526,-0.39202 -0.408526,-0.629295 z m 4.105892,-0.633422 c 0,-0.259971 0.09078,-0.536448 0.276478,-0.829431 0.18982,-0.29092 0.412652,-0.437412 0.674686,-0.437412 0.148555,0 0.332186,0.07015 0.546765,0.206326 0.218706,0.136176 0.49312,0.276477 0.825305,0.418842 0.330122,0.142366 0.713889,0.21458 1.147174,0.21458 0.77166,0 1.15749,-0.206326 1.15749,-0.614852 0,-0.224896 -0.150618,-0.408526 -0.451854,-0.550892 -0.29711,-0.144428 -0.660244,-0.26616 -1.087339,-0.365197 -0.429159,-0.1011 -0.858318,-0.231085 -1.28954,-0.39202 -0.429158,-0.160934 -0.792292,-0.429159 -1.093529,-0.802609 -0.29711,-0.373451 -0.447728,-0.852128 -0.447728,-1.433968 0,-0.798482 0.280604,-1.477296 0.839748,-2.03644 0.561208,-0.559144 1.450474,-0.837685 2.669862,-0.837685 0.833558,0 1.572206,0.125859 2.213881,0.381704 0.639611,0.255845 0.96148,0.57565 0.96148,0.96148 0,0.249655 -0.1011,0.538512 -0.301236,0.870697 -0.198073,0.328059 -0.447728,0.491057 -0.746901,0.491057 -0.125859,0 -0.412653,-0.09285 -0.862444,-0.278541 -0.445665,-0.187757 -0.854191,-0.280603 -1.225578,-0.280603 -0.348691,0 -0.614852,0.05777 -0.796419,0.17744 -0.179504,0.117606 -0.268225,0.257908 -0.268225,0.418843 0,0.185693 0.150619,0.334248 0.455981,0.445664 0.305363,0.11348 0.672624,0.222833 1.101783,0.328059 0.427095,0.10729 0.856254,0.243465 1.285412,0.410589 0.431222,0.167125 0.798483,0.451855 1.101783,0.856254 0.307426,0.4044 0.460107,0.911962 0.460107,1.520625 0,0.897519 -0.313616,1.599028 -0.942911,2.110718 -0.629295,0.509625 -1.516498,0.76547 -2.661609,0.76547 -0.96767,0 -1.801228,-0.171251 -2.500674,-0.511689 -0.69532,-0.342502 -1.041948,-0.744838 -1.041948,-1.207009 z m 8.411922,-1.621724 V 7.131715 c 0,-0.247591 0.150618,-0.455981 0.447728,-0.623105 0.299173,-0.171251 0.631359,-0.255845 0.992429,-0.255845 0.383767,0 0.720079,0.084594 1.010999,0.255845 0.295047,0.167124 0.441538,0.375514 0.441538,0.623105 v 2.985541 h 2.110718 c 0.224896,0 0.39821,0.103164 0.524069,0.30949 0.123796,0.2022 0.185693,0.443601 0.185693,0.720078 0,0.284731 -0.0619,0.528196 -0.185693,0.728332 -0.125859,0.198073 -0.299173,0.295047 -0.524069,0.295047 h -2.110718 v 3.676734 c 0,0.274414 0.05777,0.464234 0.169188,0.56946 0.113479,0.10729 0.311553,0.160935 0.596283,0.160935 h 0.802609 c 0.39821,0 0.701509,0.119669 0.911962,0.363134 0.212516,0.239338 0.317743,0.522005 0.317743,0.848001 0,0.334248 -0.105227,0.618979 -0.317743,0.856254 -0.210453,0.237275 -0.513752,0.354881 -0.911962,0.354881 h -0.802609 c -2.438777,0 -3.658165,-1.050201 -3.658165,-3.152665 z M 92.086699,7.998286 C 91.787526,7.730062 91.638971,7.418509 91.638971,7.059501 c 0,-0.361071 0.148555,-0.672623 0.447728,-0.934658 0.29711,-0.259971 0.65818,-0.389956 1.083213,-0.389956 0.410589,0 0.763407,0.129985 1.06258,0.389956 0.29711,0.262035 0.445665,0.573587 0.445665,0.934658 0,0.359008 -0.148555,0.670561 -0.445665,0.938785 -0.299173,0.266161 -0.651991,0.400273 -1.06258,0.400273 -0.425033,0 -0.786103,-0.134112 -1.083213,-0.400273 z m -0.356945,10.103797 v -7.105877 c 0,-0.262034 0.134112,-0.472487 0.402336,-0.633421 0.266161,-0.165061 0.612789,-0.245529 1.037822,-0.245529 0.410589,0 0.755154,0.08047 1.033694,0.245529 0.280604,0.160934 0.418842,0.371387 0.418842,0.633421 v 7.105877 c 0,0.224895 -0.142365,0.431222 -0.427095,0.621042 -0.28473,0.18363 -0.627232,0.276477 -1.025441,0.276477 -0.41059,0 -0.753091,-0.08872 -1.029568,-0.268224 -0.272351,-0.181567 -0.41059,-0.39202 -0.41059,-0.629295 z m 4.570127,0 V 5.92058 c 0,-0.262034 0.134112,-0.472487 0.402336,-0.633421 0.270288,-0.162998 0.610726,-0.245529 1.019252,-0.245529 0.422969,0 0.773723,0.082531 1.052264,0.245529 0.280604,0.160934 0.420905,0.371387 0.420905,0.633421 v 7.312203 l 3.096962,-3.002047 c 0.14855,-0.148555 0.33631,-0.222833 0.5612,-0.222833 0.31156,0 0.62311,0.150619 0.9326,0.453918 0.30949,0.305363 0.46423,0.612789 0.46423,0.926405 0,0.183631 -0.0743,0.350755 -0.22283,0.501373 l -1.97661,1.830114 2.55639,3.581824 c 0.099,0.162998 0.15061,0.313616 0.15061,0.449791 0,0.321869 -0.18775,0.643738 -0.5612,0.961481 -0.37345,0.315679 -0.74071,0.47455 -1.10178,0.47455 -0.29918,0 -0.5282,-0.119669 -0.68914,-0.356944 l -2.25927,-3.338359 -0.951162,0.874823 v 1.735204 c 0,0.224895 -0.146491,0.431222 -0.437411,0.621042 -0.292983,0.18363 -0.637548,0.276477 -1.035758,0.276477 -0.396146,0 -0.734522,-0.08872 -1.010999,-0.268224 -0.27235,-0.181567 -0.410589,-0.39202 -0.410589,-0.629295 z m 9.146439,-2.869999 v -1.308108 c 0,-1.056391 0.41678,-1.972479 1.24828,-2.750329 0.83149,-0.77785 1.82599,-1.165744 2.98348,-1.165744 1.14511,0 2.1396,0.385831 2.98347,1.155428 0.84801,0.77166 1.27097,1.691875 1.27097,2.760645 v 1.308108 c 0,1.046075 -0.42503,1.96629 -1.27922,2.760646 -0.85006,0.796419 -1.84249,1.194629 -2.97522,1.194629 -1.12861,0 -2.11897,-0.39821 -2.96491,-1.194629 -0.84388,-0.794356 -1.26685,-1.714571 -1.26685,-2.760646 z m 2.88857,0 c 0,0.371388 0.12999,0.703573 0.39202,0.99862 0.2641,0.29092 0.58184,0.437411 0.95117,0.437411 0.37345,0 0.69325,-0.146491 0.96148,-0.437411 0.26822,-0.295047 0.40027,-0.627232 0.40027,-0.99862 v -1.308108 c 0,-0.361071 -0.13618,-0.68294 -0.40853,-0.969733 -0.27441,-0.284731 -0.59215,-0.427096 -0.95322,-0.427096 -0.35901,0 -0.67263,0.142365 -0.94292,0.427096 -0.26616,0.286793 -0.40027,0.608662 -0.40027,0.969733 z m 0,0"
       stroke="#d9d9d9"
       stroke-width="1.4"
       stroke-opacity="1"
       stroke-miterlimit="4"
       id="path162" />
  </g>
  <g
     fill="#c22712"
     fill-opacity="1"
     id="g172"
     transform="translate(-3.0625)">
    <g
       transform="translate(80.310753,34.860128)"
       id="g170">
      <g
         id="g168">
        <path
           d="m 1.90625,-1.703125 v -22.46875 c 0,-0.4375 0.1875,-0.820313 0.5625,-1.15625 0.375,-0.332031 0.867188,-0.5 1.484375,-0.5 h 7.3125 c 2.519531,0 4.539063,0.65625 6.0625,1.96875 1.519531,1.304687 2.28125,3.355469 2.28125,6.15625 v 0.1875 c 0,2.804687 -0.796875,4.871094 -2.390625,6.203125 -1.585938,1.324219 -3.683594,1.984375 -6.296875,1.984375 h -3.5 v 7.625 c 0,0.542969 -0.273437,0.964844 -0.8125,1.265625 C 6.066406,-0.144531 5.414062,0 4.65625,0 3.90625,0 3.257812,-0.144531 2.71875,-0.4375 2.175781,-0.738281 1.90625,-1.160156 1.90625,-1.703125 Z M 7.421875,-13.5625 h 3.5 c 2.113281,0 3.171875,-1.175781 3.171875,-3.53125 v -0.390625 c 0,-2.351563 -1.058594,-3.53125 -3.171875,-3.53125 h -3.5 z m 0,0"
           id="path166" />
      </g>
    </g>
  </g>
  <g
     fill="#c22712"
     fill-opacity="1"
     id="g180"
     transform="translate(-3.0625)">
    <g
       transform="translate(100.40825,34.860128)"
       id="g178">
      <g
         id="g176">
        <path
           d="m 0.953125,-7.140625 v -2.46875 c 0,-2 0.785156,-3.734375 2.359375,-5.203125 1.582031,-1.476562 3.46875,-2.21875 5.65625,-2.21875 2.164062,0 4.050781,0.734375 5.65625,2.203125 1.601562,1.460937 2.40625,3.199219 2.40625,5.21875 v 2.46875 c 0,1.980469 -0.808594,3.726563 -2.421875,5.234375 -1.617187,1.511719 -3.496094,2.265625 -5.640625,2.265625 -2.136719,0 -4.007812,-0.753906 -5.609375,-2.265625 -1.605469,-1.507812 -2.40625,-3.253906 -2.40625,-5.234375 z m 5.484375,0 c 0,0.710937 0.242188,1.339844 0.734375,1.890625 0.488281,0.554688 1.085937,0.828125 1.796875,0.828125 0.707031,0 1.3125,-0.273437 1.8125,-0.828125 0.507812,-0.550781 0.765625,-1.179688 0.765625,-1.890625 v -2.46875 c 0,-0.6875 -0.261719,-1.300781 -0.78125,-1.84375 -0.511719,-0.539063 -1.109375,-0.8125 -1.796875,-0.8125 -0.679688,0 -1.273438,0.273437 -1.78125,0.8125 -0.5,0.542969 -0.75,1.15625 -0.75,1.84375 z m 0,0"
           id="path174" />
      </g>
    </g>
  </g>
  <g
     fill="#c22712"
     fill-opacity="1"
     id="g188"
     transform="translate(-3.0625)">
    <g
       transform="translate(118.38651,34.860128)"
       id="g186">
      <g
         id="g184">
        <path
           d="m 0.734375,-2.890625 c 0,-0.5 0.175781,-1.023437 0.53125,-1.578125 0.351563,-0.550781 0.78125,-0.828125 1.28125,-0.828125 0.28125,0 0.625,0.132813 1.03125,0.390625 0.414063,0.261719 0.9375,0.527344 1.5625,0.796875 0.625,0.273437 1.347656,0.40625 2.171875,0.40625 1.457031,0 2.1875,-0.390625 2.1875,-1.171875 0,-0.425781 -0.28125,-0.773438 -0.84375,-1.046875 -0.5625,-0.269531 -1.25,-0.5 -2.0625,-0.6875 -0.8125,-0.1875 -1.625,-0.429687 -2.4375,-0.734375 -0.8125,-0.3125 -1.507812,-0.816406 -2.078125,-1.515625 -0.5625,-0.707031 -0.84375,-1.617187 -0.84375,-2.734375 0,-1.5 0.53125,-2.78125 1.59375,-3.84375 1.0625,-1.0625 2.742187,-1.59375 5.046875,-1.59375 1.582031,0 2.976562,0.246094 4.1875,0.734375 1.21875,0.480469 1.828125,1.085937 1.828125,1.8125 0,0.46875 -0.195313,1.015625 -0.578125,1.640625 -0.375,0.625 -0.84375,0.9375 -1.40625,0.9375 -0.242188,0 -0.78125,-0.175781 -1.625,-0.53125 -0.84375,-0.351562 -1.621094,-0.53125 -2.328125,-0.53125 -0.667969,0 -1.171875,0.117188 -1.515625,0.34375 -0.335938,0.21875 -0.5,0.484375 -0.5,0.796875 0,0.34375 0.285156,0.625 0.859375,0.84375 0.582031,0.210937 1.28125,0.417969 2.09375,0.625 0.8125,0.199219 1.625,0.460937 2.4375,0.78125 0.8125,0.3125 1.503906,0.855469 2.078125,1.625 0.570312,0.761719 0.859375,1.714844 0.859375,2.859375 0,1.699219 -0.59375,3.03125 -1.78125,4 -1.1875,0.96875 -2.867187,1.453125 -5.03125,1.453125 -1.835937,0 -3.414063,-0.3242188 -4.734375,-0.96875 -1.324219,-0.65625 -1.984375,-1.414063 -1.984375,-2.28125 z m 1.625,-18.84375 c 0,-0.695313 0.296875,-1.210937 0.890625,-1.546875 l 3.671875,-1.984375 c 0.238281,-0.113281 0.4375,-0.171875 0.59375,-0.171875 0.164063,0 0.367187,0.05859 0.609375,0.171875 l 3.671875,1.984375 c 0.59375,0.335938 0.890625,0.851562 0.890625,1.546875 0,0.429687 -0.109375,0.808594 -0.328125,1.140625 -0.210937,0.324219 -0.464844,0.484375 -0.765625,0.484375 -0.125,0 -0.257812,-0.03125 -0.390625,-0.09375 L 7.53125,-22.1875 l -3.6875,1.984375 c -0.136719,0.0625 -0.261719,0.09375 -0.375,0.09375 -0.3125,0 -0.578125,-0.160156 -0.796875,-0.484375 -0.210937,-0.332031 -0.3125,-0.710938 -0.3125,-1.140625 z m 0,0"
           id="path182" />
      </g>
    </g>
  </g>
  <g
     fill="#c22712"
     fill-opacity="1"
     id="g196"
     transform="translate(-3.0625)">
    <g
       transform="translate(133.53913,34.860128)"
       id="g194">
      <g
         id="g192">
        <path
           d="m 1.515625,-5.96875 v -16.5 c 0,-0.46875 0.28125,-0.859375 0.84375,-1.171875 0.570313,-0.320313 1.195313,-0.484375 1.875,-0.484375 0.726563,0 1.367187,0.164062 1.921875,0.484375 C 6.71875,-23.328125 7,-22.9375 7,-22.46875 v 5.65625 h 3.984375 c 0.425781,0 0.753906,0.195312 0.984375,0.578125 0.238281,0.386719 0.359375,0.839844 0.359375,1.359375 0,0.542969 -0.121094,1 -0.359375,1.375 -0.230469,0.375 -0.558594,0.5625 -0.984375,0.5625 H 7 v 6.96875 c 0,0.523438 0.101562,0.882812 0.3125,1.078125 0.207031,0.199219 0.582031,0.296875 1.125,0.296875 h 1.53125 c 0.75,0 1.320312,0.230469 1.71875,0.6875 0.40625,0.460938 0.609375,0.996094 0.609375,1.609375 0,0.636719 -0.203125,1.179687 -0.609375,1.625 C 11.289062,-0.222656 10.71875,0 9.96875,0 H 8.4375 C 3.820312,0 1.515625,-1.988281 1.515625,-5.96875 Z m 0,0"
           id="path190" />
      </g>
    </g>
  </g>
  <g
     fill="#c22712"
     fill-opacity="1"
     id="g204"
     transform="translate(-3.0625)">
    <g
       transform="translate(146.39589,34.860128)"
       id="g202">
      <g
         id="g200">
        <path
           d="m 0.640625,-4.34375 c 0,-1.957031 0.707031,-3.335938 2.125,-4.140625 C 4.191406,-9.285156 6.238281,-9.6875 8.90625,-9.6875 h 1.265625 v -0.34375 c 0,-0.707031 -0.214844,-1.316406 -0.640625,-1.828125 -0.417969,-0.519531 -1.085938,-0.78125 -2,-0.78125 -1.136719,0 -2.070312,0.195313 -2.796875,0.578125 -0.730469,0.386719 -1.179687,0.578125 -1.34375,0.578125 -0.5625,0 -1.011719,-0.273437 -1.34375,-0.828125 -0.335937,-0.550781 -0.5,-1.179688 -0.5,-1.890625 0,-0.78125 0.648437,-1.445313 1.953125,-2 1.3125,-0.550781 2.675781,-0.828125 4.09375,-0.828125 2.707031,0 4.726562,0.664062 6.0625,1.984375 1.332031,1.3125 2,2.960937 2,4.9375 v 8.40625 c 0,0.480469 -0.257812,0.886719 -0.765625,1.21875 C 14.378906,-0.160156 13.738281,0 12.96875,0 12.28125,0 11.703125,-0.160156 11.234375,-0.484375 10.765625,-0.816406 10.53125,-1.222656 10.53125,-1.703125 V -2.46875 c -1.625,1.886719 -3.417969,2.828125 -5.375,2.828125 -1.292969,0 -2.371094,-0.3984375 -3.234375,-1.203125 -0.855469,-0.800781 -1.28125,-1.96875 -1.28125,-3.5 z m 5.5,-0.78125 c 0,0.992188 0.460937,1.484375 1.390625,1.484375 0.582031,0 1.164062,-0.328125 1.75,-0.984375 0.59375,-0.65625 0.890625,-1.410156 0.890625,-2.265625 V -7.03125 H 10.03125 c -0.773438,0 -1.414062,0.039062 -1.921875,0.109375 -0.511719,0.074219 -0.96875,0.257813 -1.375,0.546875 -0.398437,0.292969 -0.59375,0.710938 -0.59375,1.25 z m 0,0"
           id="path198" />
      </g>
    </g>
  </g>
  <g
     fill="#23923c"
     fill-opacity="1"
     id="g212"
     transform="translate(-3.0625)">
    <g
       transform="translate(163.46537,34.860128)"
       id="g210">
      <g
         id="g208">
        <path
           d="m 1.90625,-1.703125 v -22.46875 c 0,-0.539063 0.269531,-0.953125 0.8125,-1.234375 0.539062,-0.28125 1.1875,-0.421875 1.9375,-0.421875 0.757812,0 1.410156,0.140625 1.953125,0.421875 0.539063,0.28125 0.8125,0.695312 0.8125,1.234375 v 19.375 h 8.046875 c 0.5,0 0.890625,0.234375 1.171875,0.703125 0.28125,0.46875 0.421875,1.039062 0.421875,1.703125 0,0.65625 -0.140625,1.21875 -0.421875,1.6875 C 16.359375,-0.234375 15.96875,0 15.46875,0 H 4.3125 C 3.65625,0 3.085938,-0.144531 2.609375,-0.4375 2.140625,-0.738281 1.90625,-1.160156 1.90625,-1.703125 Z m 0,0"
           id="path206" />
      </g>
    </g>
  </g>
  <g
     fill="#23923c"
     fill-opacity="1"
     id="g220"
     transform="translate(-3.0625)">
    <g
       transform="translate(180.84319,34.860128)"
       id="g218">
      <g
         id="g216">
        <path
           d="m 0.953125,-7.140625 v -2.46875 c 0,-2 0.785156,-3.734375 2.359375,-5.203125 1.582031,-1.476562 3.46875,-2.21875 5.65625,-2.21875 2.164062,0 4.050781,0.734375 5.65625,2.203125 1.601562,1.460937 2.40625,3.199219 2.40625,5.21875 v 2.46875 c 0,1.980469 -0.808594,3.726563 -2.421875,5.234375 -1.617187,1.511719 -3.496094,2.265625 -5.640625,2.265625 -2.136719,0 -4.007812,-0.753906 -5.609375,-2.265625 -1.605469,-1.507812 -2.40625,-3.253906 -2.40625,-5.234375 z m 5.484375,0 c 0,0.710937 0.242188,1.339844 0.734375,1.890625 0.488281,0.554688 1.085937,0.828125 1.796875,0.828125 0.707031,0 1.3125,-0.273437 1.8125,-0.828125 0.507812,-0.550781 0.765625,-1.179688 0.765625,-1.890625 v -2.46875 c 0,-0.6875 -0.261719,-1.300781 -0.78125,-1.84375 -0.511719,-0.539063 -1.109375,-0.8125 -1.796875,-0.8125 -0.679688,0 -1.273438,0.273437 -1.78125,0.8125 -0.5,0.542969 -0.75,1.15625 -0.75,1.84375 z m 0,0"
           id="path214" />
      </g>
    </g>
  </g>
  <g
     fill="#23923c"
     fill-opacity="1"
     id="g228"
     transform="translate(-3.0625)">
    <g
       transform="translate(198.82145,34.860128)"
       id="g226">
      <g
         id="g224">
        <path
           d="m 0.421875,2.546875 c 0,-1.554687 0.789063,-2.773437 2.375,-3.671875 -0.855469,-0.5 -1.28125,-1.234375 -1.28125,-2.203125 0,-1.03125 0.601563,-1.984375 1.8125,-2.859375 -1.53125,-1.125 -2.296875,-2.617188 -2.296875,-4.484375 v -0.53125 c 0,-1.71875 0.660156,-3.117187 1.984375,-4.203125 1.332031,-1.082031 3.082031,-1.625 5.25,-1.625 1.488281,0 2.820313,0.28125 4,0.84375 0.394531,-0.957031 0.742187,-1.609375 1.046875,-1.953125 0.3125,-0.34375 0.628906,-0.515625 0.953125,-0.515625 0.613281,0 1.113281,0.183594 1.5,0.546875 0.394531,0.367187 0.59375,0.726563 0.59375,1.078125 0,0.375 -0.1875,0.730469 -0.5625,1.0625 l -0.71875,0.5625 c -0.34375,0.28125 -0.617187,0.515625 -0.8125,0.703125 0.894531,0.96875 1.34375,2.136719 1.34375,3.5 v 0.53125 c 0,1.699219 -0.6875,3.109375 -2.0625,4.234375 -1.375,1.117188 -3.136719,1.671875 -5.28125,1.671875 -0.78125,0 -1.492187,-0.070313 -2.125,-0.21875 C 6.046875,-4.816406 6,-4.660156 6,-4.515625 c 0,0.324219 0.359375,0.570313 1.078125,0.734375 0.71875,0.167969 1.585937,0.324219 2.609375,0.46875 1.03125,0.136719 2.054688,0.339844 3.078125,0.609375 1.03125,0.273437 1.90625,0.796875 2.625,1.578125 0.71875,0.773438 1.078125,1.78125 1.078125,3.03125 0,1.925781 -0.78125,3.367188 -2.34375,4.328125 -1.554688,0.957031 -3.4375,1.4375 -5.65625,1.4375 -2.210938,0 -4.105469,-0.464844 -5.6875,-1.390625 C 1.207031,5.363281 0.421875,4.117188 0.421875,2.546875 Z m 2.71875,-24.28125 c 0,-0.695313 0.296875,-1.210937 0.890625,-1.546875 l 3.671875,-1.984375 c 0.238281,-0.113281 0.4375,-0.171875 0.59375,-0.171875 0.164063,0 0.367187,0.05859 0.609375,0.171875 l 3.671875,1.984375 c 0.582031,0.335938 0.875,0.851562 0.875,1.546875 0,0.429687 -0.105469,0.808594 -0.3125,1.140625 -0.210937,0.324219 -0.46875,0.484375 -0.78125,0.484375 -0.117187,0 -0.246094,-0.03125 -0.390625,-0.09375 L 8.296875,-22.1875 4.625,-20.203125 c -0.136719,0.0625 -0.265625,0.09375 -0.390625,0.09375 -0.304687,0 -0.5625,-0.160156 -0.78125,-0.484375 -0.210937,-0.332031 -0.3125,-0.710938 -0.3125,-1.140625 z m 2.4375,23.71875 c 0,0.675781 0.273437,1.210937 0.828125,1.609375 C 6.96875,4 7.625,4.203125 8.375,4.203125 9.125,4.203125 9.773438,4 10.328125,3.59375 10.878906,3.195312 11.15625,2.679688 11.15625,2.046875 11.15625,1.648438 11.050781,1.320312 10.84375,1.0625 10.632812,0.800781 10.3125,0.59375 9.875,0.4375 9.4375,0.289062 9.007812,0.175781 8.59375,0.09375 8.1875,0.0078125 7.65625,-0.0664062 7,-0.140625 6.050781,0.347656 5.578125,1.054688 5.578125,1.984375 Z m 0.75,-12.6875 c 0,0.804687 0.175781,1.464844 0.53125,1.984375 0.351563,0.511719 0.847656,0.765625 1.484375,0.765625 0.601562,0 1.082031,-0.25 1.4375,-0.75 0.351562,-0.507813 0.53125,-1.164063 0.53125,-1.96875 v -0.53125 c 0,-0.75 -0.179688,-1.375 -0.53125,-1.875 -0.355469,-0.507813 -0.851562,-0.765625 -1.484375,-0.765625 -0.605469,0 -1.085937,0.257812 -1.4375,0.765625 -0.355469,0.5 -0.53125,1.125 -0.53125,1.875 z m 0,0"
           id="path222" />
      </g>
    </g>
  </g>
  <g
     fill="#23923c"
     fill-opacity="1"
     id="g236"
     transform="translate(-3.0625)">
    <g
       transform="translate(215.70478,34.860128)"
       id="g234">
      <g
         id="g232">
        <path
           d="m 2.25,-20.8125 c -0.5625,-0.507812 -0.84375,-1.109375 -0.84375,-1.796875 0,-0.6875 0.28125,-1.273437 0.84375,-1.765625 0.570312,-0.5 1.257812,-0.75 2.0625,-0.75 0.769531,0 1.4375,0.25 2,0.75 0.570312,0.492188 0.859375,1.078125 0.859375,1.765625 0,0.6875 -0.289063,1.289063 -0.859375,1.796875 -0.5625,0.5 -1.230469,0.75 -2,0.75 -0.804688,0 -1.492188,-0.25 -2.0625,-0.75 z M 1.59375,-1.703125 V -15.15625 c 0,-0.488281 0.25,-0.882812 0.75,-1.1875 0.507812,-0.3125 1.164062,-0.46875 1.96875,-0.46875 0.769531,0 1.421875,0.15625 1.953125,0.46875 0.53125,0.304688 0.796875,0.699219 0.796875,1.1875 v 13.453125 c 0,0.429687 -0.273438,0.820313 -0.8125,1.171875 C 5.707031,-0.175781 5.0625,0 4.3125,0 3.53125,0 2.878906,-0.171875 2.359375,-0.515625 1.847656,-0.859375 1.59375,-1.253906 1.59375,-1.703125 Z m 0,0"
           id="path230" />
      </g>
    </g>
  </g>
  <g
     fill="#23923c"
     fill-opacity="1"
     id="g244"
     transform="translate(-3.0625)">
    <g
       transform="translate(224.32304,34.860128)"
       id="g242">
      <g
         id="g240">
        <path
           d="m 0.734375,-2.890625 c 0,-0.5 0.175781,-1.023437 0.53125,-1.578125 0.351563,-0.550781 0.78125,-0.828125 1.28125,-0.828125 0.28125,0 0.625,0.132813 1.03125,0.390625 0.414063,0.261719 0.9375,0.527344 1.5625,0.796875 0.625,0.273437 1.347656,0.40625 2.171875,0.40625 1.457031,0 2.1875,-0.390625 2.1875,-1.171875 0,-0.425781 -0.28125,-0.773438 -0.84375,-1.046875 -0.5625,-0.269531 -1.25,-0.5 -2.0625,-0.6875 -0.8125,-0.1875 -1.625,-0.429687 -2.4375,-0.734375 -0.8125,-0.3125 -1.507812,-0.816406 -2.078125,-1.515625 -0.5625,-0.707031 -0.84375,-1.617187 -0.84375,-2.734375 0,-1.5 0.53125,-2.78125 1.59375,-3.84375 1.0625,-1.0625 2.742187,-1.59375 5.046875,-1.59375 1.582031,0 2.976562,0.246094 4.1875,0.734375 1.21875,0.480469 1.828125,1.085937 1.828125,1.8125 0,0.46875 -0.195313,1.015625 -0.578125,1.640625 -0.375,0.625 -0.84375,0.9375 -1.40625,0.9375 -0.242188,0 -0.78125,-0.175781 -1.625,-0.53125 -0.84375,-0.351562 -1.621094,-0.53125 -2.328125,-0.53125 -0.667969,0 -1.171875,0.117188 -1.515625,0.34375 -0.335938,0.21875 -0.5,0.484375 -0.5,0.796875 0,0.34375 0.285156,0.625 0.859375,0.84375 0.582031,0.210937 1.28125,0.417969 2.09375,0.625 0.8125,0.199219 1.625,0.460937 2.4375,0.78125 0.8125,0.3125 1.503906,0.855469 2.078125,1.625 0.570312,0.761719 0.859375,1.714844 0.859375,2.859375 0,1.699219 -0.59375,3.03125 -1.78125,4 -1.1875,0.96875 -2.867187,1.453125 -5.03125,1.453125 -1.835937,0 -3.414063,-0.3242188 -4.734375,-0.96875 -1.324219,-0.65625 -1.984375,-1.414063 -1.984375,-2.28125 z m 0,0"
           id="path238" />
      </g>
    </g>
  </g>
  <g
     fill="#23923c"
     fill-opacity="1"
     id="g252"
     transform="translate(-3.0625)">
    <g
       transform="translate(239.47566,34.860128)"
       id="g250">
      <g
         id="g248">
        <path
           d="m 1.515625,-5.96875 v -16.5 c 0,-0.46875 0.28125,-0.859375 0.84375,-1.171875 0.570313,-0.320313 1.195313,-0.484375 1.875,-0.484375 0.726563,0 1.367187,0.164062 1.921875,0.484375 C 6.71875,-23.328125 7,-22.9375 7,-22.46875 v 5.65625 h 3.984375 c 0.425781,0 0.753906,0.195312 0.984375,0.578125 0.238281,0.386719 0.359375,0.839844 0.359375,1.359375 0,0.542969 -0.121094,1 -0.359375,1.375 -0.230469,0.375 -0.558594,0.5625 -0.984375,0.5625 H 7 v 6.96875 c 0,0.523438 0.101562,0.882812 0.3125,1.078125 0.207031,0.199219 0.582031,0.296875 1.125,0.296875 h 1.53125 c 0.75,0 1.320312,0.230469 1.71875,0.6875 0.40625,0.460938 0.609375,0.996094 0.609375,1.609375 0,0.636719 -0.203125,1.179687 -0.609375,1.625 C 11.289062,-0.222656 10.71875,0 9.96875,0 H 8.4375 C 3.820312,0 1.515625,-1.988281 1.515625,-5.96875 Z m 0,0"
           id="path246" />
      </g>
    </g>
  </g>
  <g
     fill="#23923c"
     fill-opacity="1"
     id="g260"
     transform="translate(-3.0625)">
    <g
       transform="translate(252.33242,34.860128)"
       id="g258">
      <g
         id="g256">
        <path
           d="m 2.25,-20.8125 c -0.5625,-0.507812 -0.84375,-1.109375 -0.84375,-1.796875 0,-0.6875 0.28125,-1.273437 0.84375,-1.765625 0.570312,-0.5 1.257812,-0.75 2.0625,-0.75 0.769531,0 1.4375,0.25 2,0.75 0.570312,0.492188 0.859375,1.078125 0.859375,1.765625 0,0.6875 -0.289063,1.289063 -0.859375,1.796875 -0.5625,0.5 -1.230469,0.75 -2,0.75 -0.804688,0 -1.492188,-0.25 -2.0625,-0.75 z M 1.59375,-1.703125 V -15.15625 c 0,-0.488281 0.25,-0.882812 0.75,-1.1875 0.507812,-0.3125 1.164062,-0.46875 1.96875,-0.46875 0.769531,0 1.421875,0.15625 1.953125,0.46875 0.53125,0.304688 0.796875,0.699219 0.796875,1.1875 v 13.453125 c 0,0.429687 -0.273438,0.820313 -0.8125,1.171875 C 5.707031,-0.175781 5.0625,0 4.3125,0 3.53125,0 2.878906,-0.171875 2.359375,-0.515625 1.847656,-0.859375 1.59375,-1.253906 1.59375,-1.703125 Z m 0,0"
           id="path254" />
      </g>
    </g>
  </g>
  <g
     fill="#23923c"
     fill-opacity="1"
     id="g268"
     transform="translate(-3.0625)">
    <g
       transform="translate(260.95068,34.860128)"
       id="g266">
      <g
         id="g264">
        <path
           d="m 1.625,-1.703125 v -23.0625 c 0,-0.488281 0.25,-0.882813 0.75,-1.1875 0.507812,-0.3125 1.15625,-0.46875 1.9375,-0.46875 0.800781,0 1.460938,0.15625 1.984375,0.46875 0.53125,0.304687 0.796875,0.699219 0.796875,1.1875 v 13.84375 l 5.875,-5.6875 c 0.28125,-0.28125 0.632812,-0.421875 1.0625,-0.421875 0.582031,0 1.164062,0.292969 1.75,0.875 0.59375,0.574219 0.890625,1.15625 0.890625,1.75 0,0.34375 -0.140625,0.664062 -0.421875,0.953125 L 12.5,-10 l 4.84375,6.78125 c 0.1875,0.3125 0.28125,0.601562 0.28125,0.859375 0,0.605469 -0.355469,1.210937 -1.0625,1.8125 -0.699219,0.6015625 -1.390625,0.90625 -2.078125,0.90625 -0.5625,0 -1,-0.226563 -1.3125,-0.671875 l -4.265625,-6.328125 -1.8125,1.65625 v 3.28125 c 0,0.429687 -0.277344,0.820313 -0.828125,1.171875 C 5.710938,-0.175781 5.054688,0 4.296875,0 3.546875,0 2.910156,-0.171875 2.390625,-0.515625 1.878906,-0.859375 1.625,-1.253906 1.625,-1.703125 Z m 0,0"
           id="path262" />
      </g>
    </g>
  </g>
  <g
     fill="#23923c"
     fill-opacity="1"
     id="g276"
     transform="translate(-3.0625)">
    <g
       transform="translate(278.92894,34.860128)"
       id="g274">
      <g
         id="g272">
        <path
           d="m 0.953125,-7.140625 v -2.46875 c 0,-2 0.785156,-3.734375 2.359375,-5.203125 1.582031,-1.476562 3.46875,-2.21875 5.65625,-2.21875 2.164062,0 4.050781,0.734375 5.65625,2.203125 1.601562,1.460937 2.40625,3.199219 2.40625,5.21875 v 2.46875 c 0,1.980469 -0.808594,3.726563 -2.421875,5.234375 -1.617187,1.511719 -3.496094,2.265625 -5.640625,2.265625 -2.136719,0 -4.007812,-0.753906 -5.609375,-2.265625 -1.605469,-1.507812 -2.40625,-3.253906 -2.40625,-5.234375 z m 5.484375,0 c 0,0.710937 0.242188,1.339844 0.734375,1.890625 0.488281,0.554688 1.085937,0.828125 1.796875,0.828125 0.707031,0 1.3125,-0.273437 1.8125,-0.828125 0.507812,-0.550781 0.765625,-1.179688 0.765625,-1.890625 v -2.46875 c 0,-0.6875 -0.261719,-1.300781 -0.78125,-1.84375 -0.511719,-0.539063 -1.109375,-0.8125 -1.796875,-0.8125 -0.679688,0 -1.273438,0.273437 -1.78125,0.8125 -0.5,0.542969 -0.75,1.15625 -0.75,1.84375 z m 0,0"
           id="path270" />
      </g>
    </g>
  </g>
</svg>
